<?xml version="1.0" standalone="no"?>
<!DOCTYPE svg PUBLIC "-//W3C//DTD SVG 20010904//EN"
 "http://www.w3.org/TR/2001/REC-SVG-20010904/DTD/svg10.dtd">
<svg version="1.0" xmlns="http://www.w3.org/2000/svg"
 width="1280.000000pt" height="1094.000000pt" viewBox="0 0 1280.000000 1094.000000"
 preserveAspectRatio="xMidYMid meet">
<metadata>
Created by potrace 1.15, written by Peter Selinger 2001-2017
</metadata>
<g transform="translate(0.000000,1094.000000) scale(0.100000,-0.100000)"
fill="#b2ef9b" stroke="none">
<path d="M8504 10887 c-70 -88 -131 -190 -212 -354 -195 -398 -298 -688 -336
-945 -35 -234 -56 -695 -37 -814 20 -128 155 -522 237 -691 46 -96 74 -124
100 -103 35 30 49 144 154 1260 50 523 67 661 85 679 13 13 14 -1 9 -100 -10
-233 -24 -1045 -24 -1364 1 -440 1 -440 105 -189 87 211 176 471 199 584 42
207 68 597 70 1055 1 310 0 322 -22 395 -54 171 -225 563 -269 617 l-18 21
-41 -51z"/>
<path d="M11285 9690 c-251 -21 -471 -73 -655 -154 -164 -72 -356 -195 -453
-291 -51 -50 -216 -248 -266 -320 -71 -102 -127 -267 -102 -304 12 -19 35 -13
716 211 1018 333 1056 345 1189 373 137 28 134 26 -219 -132 -205 -91 -319
-138 -925 -378 -620 -245 -630 -250 -630 -305 0 -34 3 -35 185 -49 505 -39
748 -36 938 14 162 42 516 184 677 272 170 92 526 365 707 541 89 87 260 310
317 414 l37 66 -78 6 c-383 31 -1236 52 -1438 36z"/>
<path d="M6440 9513 c-60 -71 -163 -241 -235 -388 -143 -291 -224 -620 -256
-1039 -35 -451 62 -962 276 -1456 101 -232 185 -390 185 -348 0 9 4 106 10
215 5 109 21 443 35 743 32 693 64 1288 73 1365 l8 60 12 -80 c15 -98 33 -386
72 -1153 39 -757 64 -1077 87 -1114 11 -19 57 39 93 117 45 94 147 401 189
567 62 239 91 535 92 917 1 267 -7 340 -62 564 -39 156 -79 281 -139 426 -63
152 -169 366 -225 450 -52 78 -153 201 -165 201 -5 0 -27 -21 -50 -47z"/>
<path d="M9353 8365 c-18 -7 -58 -31 -90 -53 -32 -22 -148 -94 -258 -162 -410
-252 -474 -300 -853 -648 -117 -107 -246 -222 -285 -254 -40 -32 -91 -74 -114
-94 -24 -19 -61 -68 -84 -107 -77 -134 -207 -307 -454 -602 -163 -194 -287
-363 -483 -655 -167 -249 -196 -284 -527 -645 -112 -121 -243 -267 -292 -325
-98 -115 -263 -267 -479 -442 -76 -63 -188 -156 -249 -207 -139 -118 -329
-243 -610 -403 -389 -220 -450 -251 -920 -453 -416 -179 -767 -282 -1345 -394
-532 -103 -847 -139 -1560 -176 -325 -17 -516 -37 -621 -65 -103 -27 -115 -37
-123 -109 -10 -85 0 -126 32 -141 143 -65 1208 -5 1955 111 338 52 748 146
1182 271 410 117 923 345 1440 637 243 138 295 171 455 291 69 51 184 132 255
180 171 114 239 170 490 396 116 104 256 229 312 277 56 48 126 115 156 149
251 289 418 492 511 620 42 59 134 176 205 260 70 84 174 218 231 298 57 80
131 181 165 225 34 44 99 134 145 200 194 279 359 479 675 815 257 272 295
309 464 440 255 198 423 301 693 425 89 42 167 80 172 85 15 15 -24 162 -56
207 -44 65 -73 75 -135 48z"/>
<path d="M4200 7854 c-28 -53 -93 -158 -144 -233 -439 -642 -570 -1061 -571
-1826 0 -268 1 -286 28 -412 93 -443 175 -703 307 -978 98 -205 149 -263 179
-206 23 42 52 323 126 1236 48 592 82 972 126 1440 7 66 16 124 20 129 4 5 8
-114 9 -265 0 -151 5 -571 10 -934 5 -363 12 -915 16 -1227 4 -313 10 -568 14
-568 8 0 130 204 236 395 204 369 287 595 348 945 72 413 91 708 62 935 -73
549 -145 796 -384 1311 -86 187 -125 250 -177 289 -31 24 -122 65 -144 65 -5
0 -32 -43 -61 -96z"/>
<path d="M9219 7595 c-53 -7 -140 -25 -194 -39 -53 -14 -99 -26 -101 -26 -2 0
-4 -4 -4 -9 0 -10 223 -110 392 -175 65 -25 299 -106 520 -181 409 -138 515
-176 738 -265 l125 -50 -81 0 c-109 0 -188 16 -571 116 -494 128 -1100 270
-1110 260 -23 -23 118 -175 282 -306 255 -203 580 -366 845 -426 230 -51 642
-78 1111 -72 247 3 354 9 452 23 142 21 134 13 116 111 -14 78 -27 97 -108
148 -46 30 -76 58 -94 88 -73 125 -384 337 -782 534 -280 138 -467 200 -750
250 -133 24 -181 27 -420 30 -191 2 -298 -1 -366 -11z"/>
<path d="M1740 7577 c-13 -7 -39 -32 -58 -57 -19 -25 -91 -110 -160 -189 -244
-277 -323 -385 -473 -653 -189 -335 -299 -630 -340 -913 -26 -175 -40 -419
-45 -770 l-6 -380 26 -105 c91 -356 164 -583 279 -863 57 -140 83 -193 89
-183 35 63 131 532 223 1091 209 1272 300 1798 325 1880 7 22 8 10 5 -45 -25
-363 -149 -2336 -180 -2854 -8 -138 -13 -251 -12 -253 6 -5 212 239 270 320
129 180 314 520 375 691 71 196 138 456 168 651 45 301 77 924 56 1102 -13
116 -86 408 -176 711 -72 240 -96 306 -223 620 -91 221 -93 224 -143 199z"/>
<path d="M8180 5819 c-285 -22 -630 -115 -754 -202 l-30 -21 30 -8 c44 -13
596 -150 794 -198 862 -207 1308 -324 1335 -351 12 -12 -100 -12 -240 1 -149
14 -299 36 -920 135 -541 86 -815 125 -885 125 -44 0 -90 -15 -90 -29 0 -6 27
-41 59 -79 33 -38 73 -91 90 -119 22 -36 43 -55 73 -69 24 -10 84 -51 135 -90
130 -102 372 -216 591 -280 351 -102 837 -136 1217 -85 253 34 570 98 730 147
83 26 249 87 258 94 17 15 -317 303 -521 449 -189 135 -515 313 -722 394 -366
144 -796 214 -1150 186z"/>
<path d="M5640 3449 c-304 -20 -662 -90 -609 -119 8 -5 322 -110 699 -235
1791 -594 1860 -617 1860 -634 0 -9 -322 37 -495 70 -60 11 -261 58 -445 104
-715 177 -1483 348 -1627 361 l-75 7 15 -29 c39 -75 461 -520 576 -608 132
-101 310 -187 666 -323 305 -116 514 -155 922 -173 542 -23 962 38 1373 202
69 27 128 53 133 57 4 4 -97 111 -225 237 -251 247 -388 359 -728 599 -208
147 -296 194 -548 294 -314 125 -505 173 -762 191 -167 11 -548 11 -730 -1z"/>
<path d="M1784 2199 c-28 -5 -64 -13 -79 -19 -27 -10 -27 -11 -9 -31 31 -35
116 -88 379 -239 138 -78 324 -187 415 -240 91 -54 287 -167 435 -250 149 -84
321 -185 382 -226 62 -40 256 -155 430 -255 360 -207 429 -249 528 -327 l70
-55 -50 5 c-27 3 -93 22 -145 43 -115 46 -594 269 -935 435 -483 236 -1454
683 -1557 717 -66 22 -80 24 -94 12 -21 -17 -13 -70 25 -154 42 -92 102 -181
237 -350 126 -157 156 -189 214 -227 21 -14 39 -36 45 -56 7 -24 17 -35 40
-40 22 -6 33 -17 41 -43 8 -24 22 -39 47 -51 19 -10 109 -76 199 -148 221
-178 279 -215 523 -335 292 -144 547 -243 724 -280 178 -37 498 -60 1051 -76
379 -11 583 -9 596 4 15 14 -26 89 -130 239 -62 90 -136 202 -165 251 -53 88
-81 117 -113 117 -10 0 -32 23 -54 58 -47 73 -497 523 -584 583 -48 33 -68 54
-76 79 -8 26 -23 42 -55 59 -24 14 -71 45 -104 70 -33 25 -136 103 -229 173
-377 286 -719 427 -1271 523 -237 41 -590 58 -731 34z"/>
</g>
</svg>
